<mxfile host="app.diagrams.net" modified="2023-12-06T03:45:02.938Z" agent="Mozilla/5.0 (Windows NT 10.0; Win64; x64) AppleWebKit/537.36 (KHTML, like Gecko) Chrome/119.0.0.0 Safari/537.36" version="22.1.5" etag="_f5xPSjmO6a5n27NwuiL" type="github">
  <diagram name="PÃ¡gina-1" id="yRgUaDdqrb4a8kUDbvBu">
    <mxGraphModel>
      <root>
        <mxCell id="0" />
        <mxCell id="1" parent="0" />
      </root>
    </mxGraphModel>
  </diagram>
</mxfile>
